<?xml version="1.0" standalone="no"?>
<!DOCTYPE svg PUBLIC "-//W3C//DTD SVG 20010904//EN"
 "http://www.w3.org/TR/2001/REC-SVG-20010904/DTD/svg10.dtd">
<svg version="1.0" xmlns="http://www.w3.org/2000/svg"
 width="1200.000000pt" height="1200.000000pt" viewBox="0 0 1200.000000 1200.000000"
 preserveAspectRatio="xMidYMid meet">

<g transform="translate(0.000000,1200.000000) scale(0.100000,-0.100000)"
fill="#000000" stroke="none">
<path d="M6205 10867 c11 -8 94 -54 185 -102 1182 -632 2241 -1497 3114 -2545
464 -556 895 -1207 1248 -1885 l99 -190 -5 180 c-18 655 -251 1473 -591 2070
-218 384 -451 700 -735 998 l-102 107 -145 -136 -144 -137 -32 29 c-17 16 -88
83 -157 149 -207 198 -454 414 -700 611 -339 272 -890 659 -1024 720 -116 52
-724 144 -955 144 -66 0 -73 -2 -56 -13z"/>
<path d="M1230 10590 l0 -200 259 0 c1595 0 3155 -433 4531 -1258 189 -113
505 -325 690 -462 392 -292 628 -497 986 -854 390 -391 613 -648 900 -1041
689 -940 1174 -1984 1459 -3140 15 -60 31 -116 35 -124 6 -11 17 0 43 41 96
149 249 440 332 633 66 150 145 365 145 392 0 12 -27 100 -61 195 -334 946
-848 1888 -1471 2691 -205 265 -548 656 -731 836 l-65 64 -137 -129 c-74 -71
-141 -130 -148 -132 -7 -1 -82 64 -167 144 -1010 955 -2164 1647 -3465 2079
-924 306 -1922 463 -2952 465 l-183 0 0 -200z"/>
<path d="M1236 9119 c-3 -34 -6 -122 -6 -195 l0 -134 143 0 c1146 -2 2142
-214 3117 -662 715 -328 1425 -812 1962 -1334 64 -63 122 -114 128 -114 5 0
10 -6 10 -13 0 -7 32 -44 71 -82 163 -161 422 -463 595 -695 800 -1070 1283
-2329 1409 -3669 7 -84 15 -155 17 -157 6 -5 298 207 395 286 120 98 330 288
336 304 6 15 -62 426 -97 587 -118 541 -299 1100 -507 1565 -340 757 -759
1415 -1295 2029 -146 168 -351 389 -366 394 -6 2 -73 -59 -149 -135 l-138
-138 -116 110 c-998 941 -2140 1570 -3433 1894 -590 147 -1184 219 -1813 220
l-256 0 -7 -61z"/>
<path d="M1237 7573 c-4 -3 -7 -93 -7 -198 l0 -192 338 -6 c438 -7 712 -37
1107 -122 619 -133 1254 -395 1808 -746 657 -416 1260 -1012 1689 -1669 607
-929 917 -1981 918 -3117 0 -114 2 -133 16 -133 61 0 588 162 727 224 l58 26
-6 117 c-18 352 -45 619 -91 888 -191 1139 -696 2214 -1453 3095 -119 139
-319 350 -330 350 -4 0 -68 -59 -144 -131 -75 -72 -141 -129 -146 -127 -5 2
-69 59 -142 127 -952 886 -2156 1441 -3439 1585 -240 27 -885 48 -903 29z"/>
<path d="M1237 5934 c-4 -22 -7 -110 -7 -196 l0 -158 168 0 c441 0 810 -49
1182 -157 978 -283 1806 -919 2333 -1794 236 -393 404 -833 501 -1319 46 -230
58 -357 63 -707 l6 -333 381 0 c224 0 387 4 396 10 22 14 19 576 -4 785 -119
1065 -541 1992 -1266 2780 -50 55 -99 104 -107 109 -12 6 -48 -24 -154 -130
l-138 -138 -97 90 c-638 588 -1367 962 -2179 1118 -288 55 -421 68 -756 73
l-316 5 -6 -38z"/>
<path d="M1268 4364 l-28 -5 0 -88 c0 -48 -3 -136 -7 -194 l-6 -107 205 0
c309 0 449 -18 723 -95 365 -102 727 -317 1010 -600 211 -211 334 -384 465
-650 182 -370 261 -744 245 -1167 l-7 -188 154 -1 c393 -2 633 3 641 14 4 7 6
152 4 322 -5 355 -18 459 -92 750 -112 444 -314 854 -588 1198 -82 103 -234
267 -247 267 -4 0 -69 -59 -145 -132 -100 -96 -140 -129 -150 -122 -7 5 -48
41 -91 79 -102 90 -226 187 -339 262 -330 221 -760 383 -1165 439 -103 14
-528 27 -582 18z"/>
<path d="M1310 2756 l-75 -11 -3 -203 c-2 -191 -1 -203 15 -198 56 16 198 28
277 23 154 -10 290 -59 421 -152 156 -111 283 -312 316 -501 16 -94 6 -291
-19 -377 l-21 -67 412 2 411 3 10 45 c5 25 9 137 10 250 0 175 -3 220 -22 308
-48 219 -125 404 -240 576 -63 94 -180 234 -197 235 -5 1 -71 -60 -145 -134
l-136 -136 -70 57 c-139 115 -271 187 -431 238 -132 41 -382 62 -513 42z"/>
</g>
</svg>
